<svg width="7" height="12" viewBox="0 0 7 12" fill="none" xmlns="http://www.w3.org/2000/svg">
<path d="M0.82373 5.97168C0.82373 6.22363 0.92334 6.44043 1.1167 6.63379L5.6167 11.0225C5.76904 11.1748 5.95654 11.2568 6.1792 11.2568C6.63623 11.2568 6.99951 10.8936 6.99951 10.4424C6.99951 10.2197 6.91162 10.0088 6.74756 9.84473L2.76318 5.97754L6.74756 2.10449C6.90576 1.94043 6.99951 1.73535 6.99951 1.50684C6.99951 1.05566 6.63623 0.692383 6.1792 0.692383C5.95654 0.692383 5.76904 0.774414 5.61084 0.926758L1.1167 5.31543C0.91748 5.52051 0.82373 5.72559 0.82373 5.97168Z" fill="#69788C"/>
</svg>
