<svg width="14" height="14" viewBox="0 0 14 14" fill="none" xmlns="http://www.w3.org/2000/svg">
<path d="M7.3836 6.3201L12.5584 3.34926C11.4371 1.60285 9.44579 0.442867 7.3836 0.333313V6.3201ZM6.99694 13.6538C8.54358 13.6538 10.0258 13.106 11.2115 12.1265L6.52006 7.54453C6.38473 7.41564 6.33962 7.30609 6.33962 7.09987V0.35909C2.99501 0.687752 0.333496 3.55548 0.333496 6.99031C0.333496 10.6378 3.34945 13.6538 6.99694 13.6538ZM13.6668 6.98387C13.6668 6.043 13.4477 5.07635 13.0611 4.26436L7.81537 7.28031L11.9849 11.3789C13.0288 10.2125 13.6668 8.64006 13.6668 6.98387Z" fill="#2D3540"/>
</svg>
