<svg width="7" height="12" viewBox="0 0 7 12" fill="none" xmlns="http://www.w3.org/2000/svg">
<path d="M6.49951 5.97754C6.49951 5.72559 6.3999 5.50879 6.20654 5.31543L1.70654 0.926758C1.5542 0.774414 1.3667 0.692383 1.14404 0.692383C0.687013 0.692383 0.323731 1.05566 0.323731 1.50684C0.323731 1.72949 0.411622 1.94043 0.575684 2.10449L4.56006 5.97168L0.575684 9.84473C0.417481 10.0088 0.32373 10.2139 0.32373 10.4424C0.32373 10.8936 0.687012 11.2568 1.14404 11.2568C1.3667 11.2568 1.5542 11.1748 1.7124 11.0225L6.20654 6.63379C6.40576 6.42871 6.49951 6.22363 6.49951 5.97754Z" fill="#69788C"/>
</svg>
